<svg width="46" height="46" viewBox="0 0 46 46" fill="none" xmlns="http://www.w3.org/2000/svg">
<g filter="url(#filter0_d_3_28)">
<rect x="4" y="3" width="38" height="38" rx="7.6" fill="#ffffff" shape-rendering="crispEdges"/>
<path d="M33.233 21.4383L30.1801 20.5659C28.8052 20.1783 27.5529 19.4443 26.5428 18.4343C25.5328 17.4242 24.7988 16.1719 24.4112 14.7971L23.5388 11.7441C23.4949 11.6373 23.4203 11.5459 23.3244 11.4816C23.2284 11.4173 23.1156 11.383 23.0001 11.383C22.8846 11.383 22.7718 11.4173 22.6758 11.4816C22.5799 11.5459 22.5053 11.6373 22.4614 11.7441L21.589 14.7971C21.2014 16.1719 20.4674 17.4242 19.4574 18.4343C18.4473 19.4443 17.195 20.1783 15.8201 20.5659L12.7672 21.4383C12.65 21.4716 12.5468 21.5422 12.4733 21.6394C12.3999 21.7366 12.3601 21.8552 12.3601 21.977C12.3601 22.0989 12.3999 22.2174 12.4733 22.3146C12.5468 22.4118 12.65 22.4824 12.7672 22.5157L15.8201 23.3881C17.195 23.7757 18.4473 24.5097 19.4574 25.5197C20.4674 26.5298 21.2014 27.7821 21.589 29.157L22.4614 32.2099C22.4947 32.3272 22.5653 32.4303 22.6625 32.5038C22.7597 32.5773 22.8783 32.617 23.0001 32.617C23.122 32.617 23.2405 32.5773 23.3377 32.5038C23.4349 32.4303 23.5055 32.3272 23.5388 32.2099L24.4112 29.157C24.7988 27.7821 25.5328 26.5298 26.5428 25.5197C27.5529 24.5097 28.8052 23.7757 30.1801 23.3881L33.233 22.5157C33.3503 22.4824 33.4534 22.4118 33.5269 22.3146C33.6004 22.2174 33.6401 22.0989 33.6401 21.977C33.6401 21.8552 33.6004 21.7366 33.5269 21.6394C33.4534 21.5422 33.3503 21.4716 33.233 21.4383Z" fill="#070606"/>
</g>
<defs>
<filter id="filter0_d_3_28" x="0" y="0" width="46" height="46" filterUnits="userSpaceOnUse" color-interpolation-filters="sRGB">
<feFlood flood-opacity="0" result="BackgroundImageFix"/>
<feColorMatrix in="SourceAlpha" type="matrix" values="0 0 0 0 0 0 0 0 0 0 0 0 0 0 0 0 0 0 127 0" result="hardAlpha"/>
<feOffset dy="1"/>
<feGaussianBlur stdDeviation="2"/>
<feComposite in2="hardAlpha" operator="out"/>
<feColorMatrix type="matrix" values="0 0 0 0 0 0 0 0 0 0 0 0 0 0 0 0 0 0 0.1 0"/>
<feBlend mode="normal" in2="BackgroundImageFix" result="effect1_dropShadow_3_28"/>
<feBlend mode="normal" in="SourceGraphic" in2="effect1_dropShadow_3_28" result="shape"/>
</filter>
</defs>
</svg>
