<svg width="56" height="56" viewBox="0 0 56 56" fill="none" xmlns="http://www.w3.org/2000/svg">
<path d="M42.0003 9.33337H14.0003C10.7334 9.33337 9.09986 9.33337 7.85204 9.96916C6.75444 10.5284 5.86206 11.4208 5.30278 12.5184C4.66699 13.7662 4.66699 15.3997 4.66699 18.6667C4.66699 21.9337 4.66699 23.5672 5.30278 24.815C5.86206 25.9126 6.75444 26.8049 7.85204 27.3642C9.09986 28 10.7334 28 14.0003 28H42.0003C45.2672 28 46.9008 28 48.1487 27.3642C49.2463 26.8049 50.1385 25.9126 50.6978 24.815C51.3337 23.5672 51.3337 21.9337 51.3337 18.6667C51.3337 15.3997 51.3337 13.7662 50.6978 12.5184C50.1385 11.4208 49.2463 10.5284 48.1487 9.96916C46.9008 9.33337 45.2672 9.33337 42.0003 9.33337Z" stroke="#FF2626" stroke-width="3.5" stroke-linecap="round" stroke-linejoin="round"/>
<path d="M42.0003 16.3334C42.0003 16.3334 38.5633 21 37.3337 21C36.1038 21 32.667 16.3334 32.667 16.3334" stroke="#FF2626" stroke-width="3.5" stroke-linecap="round" stroke-linejoin="round"/>
<path d="M4.66699 37.3334H32.667" stroke="#FF2626" stroke-width="3.5" stroke-linecap="round" stroke-linejoin="round"/>
<path d="M4.66699 46.6666H32.667" stroke="#FF2626" stroke-width="3.5" stroke-linecap="round" stroke-linejoin="round"/>
</svg>
