<svg width="56" height="56" viewBox="0 0 56 56" fill="none" xmlns="http://www.w3.org/2000/svg">
<path d="M16.333 11.6666V4.66663M16.333 44.3333V51.3333" stroke="#FF2626" stroke-width="3.5" stroke-linecap="round" stroke-linejoin="round"/>
<path d="M39.6663 18.672C41.6354 18.672 43.9081 18.4775 45.0307 20.422C45.4997 21.2342 45.4997 22.3246 45.4997 24.5053V31.5053C45.4997 33.6861 45.4997 34.7764 45.0307 35.5887C43.9081 37.5333 41.6354 37.3387 39.6663 37.3387C37.6972 37.3387 35.4246 37.5333 34.302 35.5887C33.833 34.7764 33.833 33.6861 33.833 31.5053V24.5053C33.833 22.3246 33.833 21.2342 34.302 20.422C35.4246 18.4775 37.6972 18.672 39.6663 18.672Z" stroke="#FF2626" stroke-width="3.5" stroke-linecap="round" stroke-linejoin="round"/>
<path d="M16.3333 11.672C18.3024 11.672 20.5751 11.4775 21.6978 13.422C22.1667 14.2342 22.1667 15.3246 22.1667 17.5054V38.5053C22.1667 40.6861 22.1667 41.7764 21.6978 42.5887C20.5751 44.5333 18.3024 44.3387 16.3333 44.3387C14.3643 44.3387 12.0916 44.5333 10.9689 42.5887C10.5 41.7764 10.5 40.6861 10.5 38.5053V17.5054C10.5 15.3246 10.5 14.2342 10.9689 13.422C12.0916 11.4775 14.3643 11.672 16.3333 11.672Z" stroke="#FF2626" stroke-width="3.5" stroke-linecap="round" stroke-linejoin="round"/>
<path d="M39.667 18.6666V4.66663M39.667 37.3333V51.3333" stroke="#FF2626" stroke-width="3.5" stroke-linecap="round" stroke-linejoin="round"/>
</svg>
