<svg width="56" height="56" viewBox="0 0 56 56" fill="none" xmlns="http://www.w3.org/2000/svg">
<path d="M46.6663 14V42M41.9997 9.33337H13.9997M41.9997 46.6667H13.9997M9.33301 42V14" stroke="#FF2626" stroke-width="3.5" stroke-linecap="round" stroke-linejoin="round"/>
<path d="M51.3333 9.33329C51.3333 11.9106 49.2441 14 46.6667 14C44.0893 14 42 11.9106 42 9.33329C42 6.75596 44.0893 4.66663 46.6667 4.66663C49.2441 4.66663 51.3333 6.75596 51.3333 9.33329Z" stroke="#FF2626" stroke-width="3.5" stroke-linecap="round" stroke-linejoin="round"/>
<path d="M14.0003 9.33329C14.0003 11.9106 11.911 14 9.33366 14C6.75633 14 4.66699 11.9106 4.66699 9.33329C4.66699 6.75596 6.75633 4.66663 9.33366 4.66663C11.911 4.66663 14.0003 6.75596 14.0003 9.33329Z" stroke="#FF2626" stroke-width="3.5" stroke-linecap="round" stroke-linejoin="round"/>
<path d="M51.3333 46.6667C51.3333 49.2441 49.2441 51.3333 46.6667 51.3333C44.0893 51.3333 42 49.2441 42 46.6667C42 44.0893 44.0893 42 46.6667 42C49.2441 42 51.3333 44.0893 51.3333 46.6667Z" stroke="#FF2626" stroke-width="3.5" stroke-linecap="round" stroke-linejoin="round"/>
<path d="M14.0003 46.6667C14.0003 49.2441 11.911 51.3333 9.33366 51.3333C6.75633 51.3333 4.66699 49.2441 4.66699 46.6667C4.66699 44.0893 6.75633 42 9.33366 42C11.911 42 14.0003 44.0893 14.0003 46.6667Z" stroke="#FF2626" stroke-width="3.5" stroke-linecap="round" stroke-linejoin="round"/>
</svg>
