<svg width="56" height="56" viewBox="0 0 56 56" fill="none" xmlns="http://www.w3.org/2000/svg">
<path d="M23.3345 17.5001C23.3345 15.531 23.1399 13.2583 25.0845 12.1357C25.8965 11.6667 26.9869 11.6667 29.1678 11.6667H31.5012C33.6819 11.6667 34.7723 11.6667 35.5845 12.1357C37.5289 13.2583 37.3345 15.531 37.3345 17.5001C37.3345 19.4692 37.5289 21.7418 35.5845 22.8645C34.7723 23.3334 33.6819 23.3334 31.5012 23.3334H29.1678C26.9869 23.3334 25.8965 23.3334 25.0845 22.8645C23.1399 21.7418 23.3345 19.4692 23.3345 17.5001Z" stroke="#FF2626" stroke-width="3.5" stroke-linecap="round" stroke-linejoin="round"/>
<path d="M9.33451 38.5001C9.33451 36.531 9.13998 34.2583 11.0845 33.1357C11.8967 32.6667 12.9871 32.6667 15.1678 32.6667H31.5013C33.682 32.6667 34.7724 32.6667 35.5846 33.1357C37.529 34.2583 37.3346 36.531 37.3346 38.5001C37.3346 40.4692 37.529 42.7418 35.5846 43.8644C34.7724 44.3334 33.682 44.3334 31.5013 44.3334H15.1678C12.9871 44.3334 11.8967 44.3334 11.0845 43.8644C9.13998 42.7418 9.33451 40.4692 9.33451 38.5001Z" stroke="#FF2626" stroke-width="3.5" stroke-linecap="round" stroke-linejoin="round"/>
<path d="M46.667 4.66675V51.3334" stroke="#FF2626" stroke-width="3.5" stroke-linecap="round" stroke-linejoin="round"/>
</svg>
