<svg width="56" height="56" viewBox="0 0 56 56" fill="none" xmlns="http://www.w3.org/2000/svg">
<path d="M35 46.6666H21C18.8256 46.6666 17.7384 46.6666 16.8808 46.3115C15.7374 45.8378 14.8289 44.9292 14.3552 43.7859C14 42.9282 14 41.8411 14 39.6666C14 37.4922 14 36.4051 14.3552 35.5474C14.8289 34.404 15.7374 33.4954 16.8808 33.0218C17.7384 32.6666 18.8256 32.6666 21 32.6666H35C37.1744 32.6666 38.2615 32.6666 39.1193 33.0218C40.2626 33.4954 41.1712 34.404 41.6449 35.5474C42 36.4051 42 37.4922 42 39.6666C42 41.8411 42 42.9282 41.6449 43.7859C41.1712 44.9292 40.2626 45.8378 39.1193 46.3115C38.2615 46.6666 37.1744 46.6666 35 46.6666Z" stroke="#FF2626" stroke-width="3.5" stroke-linecap="round" stroke-linejoin="round"/>
<path d="M35 23.3334H21C18.8256 23.3334 17.7384 23.3334 16.8808 22.9781C15.7374 22.5045 14.8289 21.596 14.3552 20.4526C14 19.595 14 18.5078 14 16.3334C14 14.159 14 13.0718 14.3552 12.2142C14.8289 11.0707 15.7374 10.1622 16.8808 9.6886C17.7384 9.33337 18.8256 9.33337 21 9.33337H35C37.1744 9.33337 38.2615 9.33337 39.1193 9.6886C40.2626 10.1622 41.1712 11.0707 41.6449 12.2142C42 13.0718 42 14.159 42 16.3334C42 18.5078 42 19.595 41.6449 20.4526C41.1712 21.596 40.2626 22.5045 39.1193 22.9781C38.2615 23.3334 37.1744 23.3334 35 23.3334Z" stroke="#FF2626" stroke-width="3.5" stroke-linecap="round" stroke-linejoin="round"/>
<path d="M51.3337 32.6667C51.3337 32.6667 46.667 29.2297 46.667 28C46.667 26.7701 51.3337 23.3334 51.3337 23.3334" stroke="#FF2626" stroke-width="3.5" stroke-linecap="round" stroke-linejoin="round"/>
<path d="M4.66702 32.6667C4.66702 32.6667 9.33366 29.2297 9.33366 28C9.33366 26.7701 4.66699 23.3334 4.66699 23.3334" stroke="#FF2626" stroke-width="3.5" stroke-linecap="round" stroke-linejoin="round"/>
</svg>
