<svg width="56" height="56" viewBox="0 0 56 56" fill="none" xmlns="http://www.w3.org/2000/svg">
<path d="M11.667 39.6666H4.66699M44.3337 39.6666H51.3337" stroke="#FF2626" stroke-width="3.5" stroke-linecap="round" stroke-linejoin="round"/>
<path d="M18.6724 16.3333C18.6724 14.3643 18.4779 12.0916 20.4224 10.9689C21.2346 10.5 22.325 10.5 24.5057 10.5H31.5057C33.6864 10.5 34.7768 10.5 35.589 10.9689C37.5336 12.0916 37.339 14.3643 37.339 16.3333C37.339 18.3024 37.5336 20.5751 35.589 21.6978C34.7768 22.1667 33.6864 22.1667 31.5057 22.1667H24.5057C22.325 22.1667 21.2346 22.1667 20.4224 21.6978C18.4779 20.5751 18.6724 18.3024 18.6724 16.3333Z" stroke="#FF2626" stroke-width="3.5" stroke-linecap="round" stroke-linejoin="round"/>
<path d="M11.6724 39.6667C11.6724 37.6976 11.4779 35.4249 13.4224 34.3024C14.2346 33.8334 15.325 33.8334 17.5057 33.8334H38.5057C40.6864 33.8334 41.7768 33.8334 42.589 34.3024C44.5336 35.4249 44.339 37.6976 44.339 39.6667C44.339 41.6358 44.5336 43.9085 42.589 45.031C41.7768 45.5 40.6864 45.5 38.5057 45.5H17.5057C15.325 45.5 14.2346 45.5 13.4224 45.031C11.4779 43.9085 11.6724 41.6358 11.6724 39.6667Z" stroke="#FF2626" stroke-width="3.5" stroke-linecap="round" stroke-linejoin="round"/>
<path d="M18.667 16.3334H4.66699M37.3337 16.3334H51.3337" stroke="#FF2626" stroke-width="3.5" stroke-linecap="round" stroke-linejoin="round"/>
</svg>
